<svg width="16" height="10" viewBox="0 0 16 10" fill="none" xmlns="http://www.w3.org/2000/svg">
<path d="M0.504769 0.751445C0.407914 0.848056 0.33107 0.962824 0.278638 1.08918C0.226207 1.21553 0.199218 1.35099 0.199218 1.48779C0.199218 1.62459 0.226207 1.76005 0.278638 1.8864C0.33107 2.01276 0.407914 2.12753 0.504769 2.22414L7.50215 9.22152C7.57913 9.29865 7.67056 9.35985 7.77121 9.4016C7.87186 9.44335 7.97976 9.46484 8.08873 9.46484C8.1977 9.46484 8.3056 9.44335 8.40626 9.4016C8.50691 9.35985 8.59834 9.29865 8.67532 9.22152L15.6727 2.22414C16.0804 1.81644 16.0804 1.15914 15.6727 0.751444C15.265 0.343749 14.6077 0.343749 14.2 0.751444L8.09289 6.85855L1.97746 0.743125C1.56977 0.34375 0.912464 0.34375 0.504769 0.751445Z" fill="white"/>
</svg>
