<svg width="27" height="28" viewBox="0 0 27 28" fill="none" xmlns="http://www.w3.org/2000/svg">
<g clip-path="url(#clip0_12847_1226)">
<path d="M26.3049 17.1412C24.5262 24.2767 17.2968 28.6143 10.1715 26.8355C3.03577 25.0568 -1.30181 17.8277 0.476966 10.7025C2.25564 3.56702 9.47455 -0.770562 16.6103 1.00822C23.7356 2.77649 28.0837 10.0056 26.3049 17.1412Z" fill="url(#paint0_linear_12847_1226)"/>
<path d="M19.7288 12.2628C19.9888 10.4948 18.6472 9.53794 16.7959 8.90352L17.3991 6.50103L15.9431 6.13701L15.3606 8.4771C14.9758 8.3835 14.5806 8.28989 14.1854 8.20669L14.7678 5.8562L13.3118 5.49219L12.7189 7.88428C12.3965 7.81147 12.0845 7.73867 11.7829 7.66587V7.65547L9.76523 7.15625L9.38042 8.71631C9.38042 8.71631 10.4621 8.96592 10.4413 8.97632C11.0341 9.12192 11.1381 9.51714 11.1173 9.82915L10.4309 12.5645C10.4725 12.5749 10.5245 12.5853 10.5869 12.6165C10.5349 12.6061 10.4829 12.5957 10.4309 12.5749L9.47402 16.4022C9.40122 16.579 9.21401 16.8494 8.8084 16.7454C8.8188 16.7662 7.74756 16.4854 7.74756 16.4854L7.01953 18.1599L8.9228 18.6383C9.27642 18.7319 9.61963 18.8151 9.96284 18.9087L9.35962 21.332L10.8157 21.696L11.4189 19.2935C11.8141 19.3975 12.2093 19.5015 12.5837 19.5951L11.9909 21.9872L13.447 22.3512L14.0502 19.9279C16.5463 20.3959 18.4184 20.2087 19.1984 17.9519C19.8328 16.1422 19.1672 15.0917 17.8567 14.4053C18.824 14.1869 19.5416 13.5525 19.7288 12.2628ZM16.3903 16.943C15.9431 18.7527 12.8854 17.775 11.8973 17.5254L12.6981 14.3117C13.6862 14.5613 16.8687 15.0501 16.3903 16.943ZM16.8479 12.2316C16.4319 13.8853 13.8942 13.0429 13.0726 12.8349L13.8006 9.92275C14.6222 10.1308 17.2743 10.5156 16.8479 12.2316Z" fill="white"/>
</g>
<defs>
<linearGradient id="paint0_linear_12847_1226" x1="13.3834" y1="0.602985" x2="13.3834" y2="27.2317" gradientUnits="userSpaceOnUse">
<stop stop-color="#F9AA4B"/>
<stop offset="1" stop-color="#F7931A"/>
</linearGradient>
<clipPath id="clip0_12847_1226">
<rect width="26.625" height="26.625" fill="white" transform="translate(0.078125 0.609375)"/>
</clipPath>
</defs>
</svg>
