<svg width="12" height="8" viewBox="0 0 12 8" fill="none" xmlns="http://www.w3.org/2000/svg">
<path d="M0.606184 1.09996C0.537855 1.16812 0.483643 1.24909 0.446654 1.33823C0.409665 1.42737 0.390625 1.52293 0.390625 1.61944C0.390625 1.71595 0.409665 1.81151 0.446654 1.90065C0.483643 1.98979 0.537855 2.07076 0.606184 2.13892L5.54268 7.07541C5.59698 7.12983 5.66148 7.173 5.73249 7.20245C5.8035 7.23191 5.87962 7.24707 5.9565 7.24707C6.03337 7.24707 6.1095 7.23191 6.1805 7.20245C6.25151 7.173 6.31602 7.12983 6.37032 7.07541L11.3068 2.13892C11.5944 1.8513 11.5944 1.38758 11.3068 1.09996C11.0192 0.812344 10.5555 0.812344 10.2679 1.09996L5.95943 5.40839L1.64514 1.09409C1.35752 0.812344 0.893804 0.812345 0.606184 1.09996Z" fill="white"/>
</svg>
