<svg width="27" height="27" viewBox="0 0 27 27" fill="none" xmlns="http://www.w3.org/2000/svg">
<g clip-path="url(#clip0_12847_1240)">
<path d="M15.349 7.50553C16.9828 7.50553 18.3073 6.18104 18.3073 4.5472C18.3073 2.91336 16.9828 1.58887 15.349 1.58887C13.7151 1.58887 12.3906 2.91336 12.3906 4.5472C12.3906 6.18104 13.7151 7.50553 15.349 7.50553Z" fill="#B3B3B3"/>
<path d="M18.3745 19.5081C18.2928 19.4531 18.2009 19.415 18.1043 19.396C18.0076 19.377 17.9082 19.3776 17.8117 19.3975C17.7153 19.4175 17.6238 19.4566 17.5426 19.5124C17.4615 19.5682 17.3923 19.6397 17.3391 19.7226C16.6241 20.7814 15.7483 21.7221 14.7432 22.5108C14.4991 22.6957 13.5894 23.3983 13.2048 23.2504C12.9386 23.169 13.0939 22.6439 13.1457 22.4221L13.5377 21.2609C13.7004 20.7876 16.533 12.3859 16.8436 11.4244C17.3021 10.0192 17.1024 8.63622 15.0094 8.96903C14.4399 9.0282 8.6638 9.77517 8.56026 9.78257C8.46313 9.78888 8.36821 9.81426 8.28089 9.85726C8.19358 9.90026 8.11559 9.96004 8.05137 10.0332C7.98716 10.1063 7.93798 10.1914 7.90665 10.2835C7.87531 10.3757 7.86244 10.4731 7.86875 10.5702C7.87506 10.6674 7.90044 10.7623 7.94344 10.8496C7.98644 10.9369 8.04622 11.0149 8.11936 11.0791C8.1925 11.1433 8.27757 11.1925 8.36972 11.2238C8.46186 11.2552 8.55928 11.2681 8.6564 11.2617C8.6564 11.2617 10.8752 10.9733 11.1192 10.9511C11.2442 10.9389 11.3701 10.9631 11.4817 11.0209C11.5932 11.0786 11.6857 11.1674 11.7479 11.2765C11.8819 11.6908 11.8635 12.1393 11.6961 12.5412C11.5038 13.2808 8.46411 21.8452 8.36797 22.3407C8.26485 22.7554 8.29348 23.1918 8.44988 23.5895C8.60628 23.9871 8.88269 24.3262 9.24067 24.5594C9.91259 25.0073 10.7126 25.2229 11.5186 25.1733C12.3022 25.1637 13.0772 25.0082 13.8039 24.7148C15.6455 23.9752 17.5684 22.0079 18.5816 20.4622C18.6689 20.3051 18.696 20.1217 18.6579 19.9461C18.6197 19.7705 18.519 19.6148 18.3745 19.5081Z" fill="#B3B3B3"/>
</g>
<defs>
<clipPath id="clip0_12847_1240">
<rect y="0.109375" width="26.625" height="26.625" rx="13.3125" fill="white"/>
</clipPath>
</defs>
</svg>
