<svg width="23" height="21" viewBox="0 0 23 21" fill="none" xmlns="http://www.w3.org/2000/svg">
<path d="M21.3046 16.5053C21.9087 15.4048 22.2313 14.1721 22.2439 12.9167C22.2565 11.6614 21.9587 10.4224 21.3768 9.31003C20.795 8.19762 19.9473 7.24624 18.909 6.54055C17.8708 5.83485 16.6742 5.3967 15.4257 5.26509C15.0295 4.31056 14.4431 3.44665 13.7023 2.72595C12.9616 2.00524 12.0819 1.44283 11.1168 1.07293C10.1518 0.703035 9.12156 0.533396 8.08886 0.574339C7.05616 0.615283 6.04259 0.865954 5.10986 1.31109C4.17712 1.75623 3.34473 2.38653 2.66335 3.16361C1.98196 3.9407 1.46584 4.84832 1.14641 5.83123C0.826968 6.81413 0.710894 7.85176 0.805248 8.88096C0.899603 9.91015 1.20241 10.9094 1.69524 11.8178L1.07024 14.0151C1.01391 14.2155 1.01196 14.4272 1.0646 14.6286C1.11723 14.83 1.22256 15.0137 1.36974 15.1609C1.51692 15.3081 1.70065 15.4134 1.90203 15.4661C2.10341 15.5187 2.31518 15.5167 2.51556 15.4604L4.71282 14.8354C5.59691 15.3232 6.56989 15.6287 7.57415 15.7338C7.98097 16.7265 8.59286 17.622 9.36977 18.3617C10.1467 19.1014 11.0711 19.6687 12.0824 20.0264C13.0938 20.3841 14.1693 20.5242 15.2385 20.4374C16.3078 20.3507 17.3466 20.039 18.287 19.5229L20.4843 20.1479C20.685 20.2076 20.8981 20.212 21.1011 20.1606C21.3041 20.1092 21.4895 20.0039 21.6375 19.8558C21.7856 19.7077 21.8909 19.5224 21.9423 19.3194C21.9937 19.1164 21.9894 18.9033 21.9296 18.7026L21.3046 16.5053ZM4.79095 13.6147C4.73428 13.6141 4.67799 13.6241 4.62493 13.644L2.19329 14.3374L2.88665 11.9057C2.91103 11.8296 2.91841 11.749 2.90829 11.6697C2.89817 11.5904 2.87078 11.5143 2.82806 11.4467C2.02894 10.0981 1.74953 8.5042 2.04228 6.96419C2.33503 5.42417 3.17981 4.04396 4.41804 3.08264C5.65627 2.12133 7.20281 1.64501 8.76733 1.74311C10.3318 1.8412 11.8068 2.50697 12.9152 3.61542C14.0237 4.72388 14.6894 6.1988 14.7875 7.76332C14.8856 9.32784 14.4093 10.8744 13.448 12.1126C12.4867 13.3508 11.1065 14.1956 9.56646 14.4884C8.02644 14.7811 6.43253 14.5017 5.08392 13.7026C4.99684 13.6455 4.89506 13.615 4.79095 13.6147ZM20.1132 16.5932L20.8066 19.0249L18.3749 18.3315C18.2988 18.3071 18.2182 18.2997 18.1389 18.3099C18.0596 18.32 17.9835 18.3474 17.9159 18.3901C17.156 18.8395 16.312 19.1282 15.436 19.2385C14.5601 19.3487 13.6708 19.278 12.8232 19.0309C11.9756 18.7838 11.1878 18.3654 10.5083 17.8017C9.82887 17.2379 9.27228 16.5408 8.87298 15.7534C10.8014 15.6247 12.6091 14.7687 13.9307 13.3583C15.2522 11.9479 15.989 10.0885 15.9921 8.15571C15.9899 7.6005 15.9277 7.04716 15.8066 6.50532C16.826 6.6968 17.7843 7.13112 18.6002 7.7715C19.4162 8.41188 20.0658 9.23947 20.4941 10.1842C20.9224 11.1289 21.1167 12.1629 21.0606 13.1986C21.0045 14.2344 20.6996 15.2413 20.1718 16.1342C20.1291 16.2018 20.1017 16.2779 20.0916 16.3572C20.0815 16.4365 20.0888 16.5171 20.1132 16.5932Z" fill="white" fill-opacity="0.75"/>
</svg>
