<svg width="25" height="25" viewBox="0 0 25 25" fill="none" xmlns="http://www.w3.org/2000/svg">
<path d="M12.5 22.9163C13.1451 22.9172 13.7744 22.717 14.3005 22.3436C14.8266 21.9702 15.2233 21.4422 15.4354 20.833H9.56458C9.77673 21.4422 10.1734 21.9702 10.6995 22.3436C11.2256 22.717 11.8549 22.9172 12.5 22.9163V22.9163ZM19.7917 15.1934V10.4163C19.7917 7.0653 17.5156 4.24238 14.4323 3.39342C14.1271 2.62467 13.3813 2.08301 12.5 2.08301C11.6188 2.08301 10.8729 2.62467 10.5677 3.39342C7.48438 4.24342 5.20833 7.0653 5.20833 10.4163V15.1934L3.43021 16.9715C3.33329 17.0681 3.25643 17.1829 3.20405 17.3093C3.15167 17.4357 3.1248 17.5712 3.125 17.708V18.7497C3.125 19.0259 3.23475 19.2909 3.4301 19.4862C3.62545 19.6816 3.8904 19.7913 4.16667 19.7913H20.8333C21.1096 19.7913 21.3746 19.6816 21.5699 19.4862C21.7653 19.2909 21.875 19.0259 21.875 18.7497V17.708C21.8752 17.5712 21.8483 17.4357 21.796 17.3093C21.7436 17.1829 21.6667 17.0681 21.5698 16.9715L19.7917 15.1934Z" fill="white" fill-opacity="0.75"/>
<circle cx="18.3955" cy="5.08689" r="2.73924" fill="#F9A135"/>
</svg>
