<svg width="16" height="16" viewBox="0 0 16 16" fill="none" xmlns="http://www.w3.org/2000/svg">
<path d="M12.2152 11.6496L14.1259 13.5592C14.215 13.6515 14.2643 13.775 14.2632 13.9033C14.262 14.0315 14.2106 14.1542 14.1199 14.2449C14.0292 14.3356 13.9065 14.387 13.7783 14.3882C13.65 14.3893 13.5265 14.34 13.4342 14.2509L11.5236 12.3402C10.275 13.41 8.66071 13.9545 7.01932 13.8596C5.37794 13.7648 3.83709 13.0378 2.72012 11.8314C1.60315 10.6249 0.996881 9.03272 1.02852 7.3889C1.06017 5.74508 1.72726 4.17741 2.88984 3.01484C4.05241 1.85226 5.62008 1.18517 7.2639 1.15352C8.90772 1.12188 10.4999 1.72815 11.7064 2.84512C12.9128 3.96209 13.6398 5.50294 13.7346 7.14432C13.8295 8.78571 13.285 10.4 12.2152 11.6486V11.6496ZM7.38636 12.892C8.8134 12.892 10.182 12.3251 11.1911 11.3161C12.2001 10.307 12.767 8.9384 12.767 7.51136C12.767 6.08433 12.2001 4.71574 11.1911 3.70668C10.182 2.69761 8.8134 2.13072 7.38636 2.13072C5.95933 2.13072 4.59074 2.69761 3.58168 3.70668C2.57261 4.71574 2.00572 6.08433 2.00572 7.51136C2.00572 8.9384 2.57261 10.307 3.58168 11.3161C4.59074 12.3251 5.95933 12.892 7.38636 12.892Z" fill="#A2A3A4"/>
</svg>
