<svg width="26" height="25" viewBox="0 0 26 25" fill="none" xmlns="http://www.w3.org/2000/svg">
<g clip-path="url(#clip0_12847_1175)">
<path d="M20.0275 10.8679C20.0275 11.5077 17.7363 12.0431 14.6651 12.1783L14.6672 12.1793C14.1558 12.207 13.6436 12.2182 13.1315 12.2131C12.3341 12.2131 11.77 12.1895 11.5714 12.1793C8.49401 12.0442 6.19674 11.5088 6.19674 10.8679C6.19674 10.227 8.49401 9.69059 11.5714 9.55341V11.6459C11.772 11.6613 12.3484 11.6951 13.1449 11.6951C14.1 11.6951 14.5781 11.6541 14.6651 11.647V9.55546C17.7363 9.69161 20.0275 10.2281 20.0275 10.8679ZM25.3407 11.4269L13.2401 23.0217C13.2058 23.0546 13.1601 23.0729 13.1126 23.0729C13.0651 23.0729 13.0195 23.0546 12.9852 23.0217L0.885587 11.4269C0.857192 11.4002 0.838093 11.3651 0.831092 11.3268C0.824091 11.2885 0.829555 11.2489 0.846684 11.2139L5.32657 1.80268C5.34136 1.77105 5.36498 1.74436 5.39458 1.72584C5.42419 1.70731 5.45852 1.69774 5.49343 1.69826H20.7349C20.7694 1.69842 20.8031 1.70842 20.8321 1.7271C20.8611 1.74578 20.8842 1.77236 20.8987 1.80371L25.3796 11.2139C25.3967 11.2489 25.4022 11.2885 25.3952 11.3268C25.3882 11.3651 25.3691 11.4002 25.3407 11.4269ZM20.7564 11.0133C20.7564 10.1881 18.1438 9.49813 14.6682 9.3374V7.46601H18.9536V4.60978H7.286V7.46601H11.5703V9.33843C8.08759 9.49813 5.46886 10.1881 5.46886 11.0143C5.46886 11.8415 8.08759 12.5294 11.5703 12.6912V18.6923H14.6672V12.6891C18.1417 12.5284 20.7564 11.8394 20.7564 11.0133Z" fill="white"/>
</g>
<defs>
<clipPath id="clip0_12847_1175">
<rect width="24.5697" height="24.5697" fill="white" transform="translate(0.828125 0.100586)"/>
</clipPath>
</defs>
</svg>
