<svg width="26" height="26" viewBox="0 0 26 26" fill="none" xmlns="http://www.w3.org/2000/svg">
<g clip-path="url(#clip0_12847_1157)">
<rect x="0.828125" y="0.858398" width="24.5697" height="24.5697" rx="12.2849" fill="white"/>
<path d="M13.2665 0.858398L13.1133 1.43256V18.0933L13.2665 18.262L20.2795 13.6906L13.2665 0.858398Z" fill="#343434"/>
<path d="M13.1115 0.858398L5.94531 13.6905L13.1115 18.262V10.1753V0.858398Z" fill="#8C8C8C"/>
<path d="M13.2004 19.4825L13.1133 19.5915V25.1666L13.2004 25.4278L20.2795 15.1904L13.2004 19.4825Z" fill="#3C3C3B"/>
<path d="M13.1115 25.4278V19.4825L5.94531 15.1904L13.1115 25.4278Z" fill="#8C8C8C"/>
<path d="M13.1133 18.2622L20.2795 13.6324L13.1133 10.0723V18.2622Z" fill="#141414"/>
<path d="M5.94531 13.6324L13.1115 18.2622V10.0723L5.94531 13.6324Z" fill="#393939"/>
</g>
<defs>
<clipPath id="clip0_12847_1157">
<rect x="0.828125" y="0.858398" width="24.5697" height="24.5697" rx="12.2849" fill="white"/>
</clipPath>
</defs>
</svg>
