<svg width="27" height="28" viewBox="0 0 27 28" fill="none" xmlns="http://www.w3.org/2000/svg">
<g clip-path="url(#clip0_12847_1232)">
<rect x="0.078125" y="0.859375" width="26.625" height="26.625" rx="13.3125" fill="white"/>
<path d="M13.3906 0.859375C20.7433 0.859375 26.7031 6.81921 26.7031 14.1719C26.7031 21.5245 20.7433 27.4844 13.3906 27.4844C6.03796 27.4844 0.078125 21.5245 0.078125 14.1719C0.078125 6.81921 6.03796 0.859375 13.3906 0.859375ZM16.1796 5.48547C15.9766 5.38562 15.7736 5.48547 15.7236 5.68765C15.6729 5.73841 15.6729 5.78916 15.6729 5.88984V6.59706L15.6812 6.68359C15.7246 6.85477 15.8298 7.00383 15.9766 7.10211C19.9321 8.51656 21.9605 12.9097 20.4895 16.7978C19.729 18.9194 18.0558 20.5344 15.9766 21.2924C15.7736 21.3931 15.6729 21.5445 15.6729 21.7974V22.5047L15.677 22.5779C15.685 22.6578 15.7183 22.733 15.7723 22.7925C15.8262 22.852 15.8978 22.8925 15.9766 22.9082C16.0273 22.9082 16.1288 22.9082 16.1796 22.8583C17.3208 22.5019 18.3802 21.9233 19.2969 21.1558C20.2135 20.3883 20.9693 19.4471 21.5207 18.3863C22.0721 17.3255 22.4082 16.1661 22.5097 14.9748C22.6112 13.7836 22.476 12.5841 22.112 11.4453C21.2001 8.56648 18.9686 6.39488 16.1796 5.4863V5.48547ZM10.8047 5.43555C10.7539 5.43555 10.6524 5.43555 10.6017 5.48547C9.46047 5.84185 8.40104 6.42045 7.48439 7.18795C6.56773 7.95545 5.81195 8.8967 5.26055 9.95749C4.70916 11.0183 4.37305 12.1777 4.27157 13.3689C4.17009 14.5601 4.30525 15.7597 4.66927 16.8984C5.58118 19.7273 7.76193 21.8989 10.6017 22.8075C10.8047 22.9082 11.0077 22.8075 11.0576 22.6053C11.1084 22.5554 11.1084 22.5038 11.1084 22.4032V21.6959L11.1 21.6294C11.0651 21.4888 10.9345 21.3282 10.8047 21.2416C6.8492 19.8272 4.8207 15.4341 6.29173 11.546C7.05221 9.4243 8.72543 7.80933 10.8047 7.05135C11.0077 6.95068 11.1084 6.79925 11.1084 6.54631V5.83908L11.1042 5.76586C11.0963 5.68597 11.0629 5.61073 11.009 5.55125C10.955 5.49178 10.8834 5.45121 10.8047 5.43555ZM13.7459 8.06144H12.9846L12.9114 8.06809C12.745 8.10137 12.6235 8.24448 12.5786 8.46581V9.62732L12.4063 9.65394C10.9852 9.90688 10.0949 10.8878 10.0949 12.1018C10.0949 13.7675 11.1084 14.424 13.2384 14.6769C14.6586 14.929 15.1146 15.2327 15.1146 16.0406C15.1146 16.8477 14.4049 17.4035 13.4414 17.4035C12.1226 17.4035 11.6667 16.8485 11.5144 16.0905C11.4645 15.8892 11.3114 15.7877 11.1591 15.7877H10.2971L10.2314 15.7935C10.1494 15.8068 10.0749 15.8493 10.0218 15.9132C9.96873 15.9772 9.94062 16.0582 9.94269 16.1413V16.1912L9.97014 16.341C10.2114 17.5258 11.0235 18.3736 12.6301 18.6158V19.828L12.6368 19.9012C12.6701 20.066 12.814 20.1875 13.0362 20.2316H13.7967L13.8699 20.2249C14.0363 20.1916 14.1578 20.0485 14.2027 19.828V18.6149L14.3749 18.5816C15.8002 18.2804 16.7379 17.2496 16.7379 15.9383C16.7379 14.171 15.6729 13.5653 13.5429 13.3124C12.0211 13.1102 11.7174 12.7067 11.7174 11.9994C11.7174 11.2922 12.2249 10.8379 13.2384 10.8379C14.1511 10.8379 14.6586 11.1408 14.9116 11.8988C14.9379 11.9721 14.9861 12.0355 15.0496 12.0806C15.1132 12.1257 15.189 12.1502 15.2669 12.1509H16.0781L16.1438 12.1459C16.2262 12.1328 16.3009 12.0902 16.3542 12.0261C16.4075 11.9619 16.4356 11.8806 16.4334 11.7973V11.7473L16.4026 11.6034C16.2777 11.0862 15.9928 10.6216 15.5886 10.2756C15.1844 9.92968 14.6814 9.71999 14.1511 9.67641V8.46581L14.1444 8.39259C14.1112 8.22701 13.9672 8.10554 13.7451 8.06144H13.7459Z" fill="#0038FF"/>
</g>
<defs>
<clipPath id="clip0_12847_1232">
<rect x="0.078125" y="0.859375" width="26.625" height="26.625" rx="13.3125" fill="white"/>
</clipPath>
</defs>
</svg>
