<svg width="26" height="23" viewBox="0 0 26 23" fill="none" xmlns="http://www.w3.org/2000/svg">
<path d="M23.1398 2.76994L23.1404 2.77051L1.31835 4.96456C1.68043 4.14296 2.20456 3.39758 2.8619 2.77115L2.86293 2.77016C3.52512 2.13669 4.29617 1.63882 5.15371 1.29205L5.15451 1.29173C6.04158 0.931833 6.98101 0.750021 7.95438 0.750021C9.30447 0.750021 10.6192 1.11111 11.7598 1.79074L11.7599 1.79076C12.0327 1.95332 12.2913 2.13147 12.5358 2.32517L13.0015 2.69414L13.4672 2.32517C13.7117 2.13147 13.9703 1.95332 14.2431 1.79076L14.2431 1.79074C15.3837 1.11111 16.6985 0.750021 18.0486 0.750023L18.0503 0.750019C19.011 0.747859 19.9622 0.932135 20.8485 1.29173L20.8494 1.29211C21.7038 1.63739 22.4812 2.13936 23.1398 2.76994ZM25.371 4.66216L24.6846 4.96456C24.6847 4.96462 24.6847 4.96469 24.6847 4.96476C24.6848 4.96499 24.6849 4.96523 24.685 4.96546L25.371 4.66216ZM23.3201 12.9446C22.3748 14.3211 21.0606 15.7767 19.4063 17.2685C16.6577 19.745 13.9371 21.4555 13.8344 21.5198L13.8343 21.5199L13.1224 21.9658C13.1223 21.9659 13.1221 21.966 13.1219 21.9662C13.0489 22.0113 12.951 22.0113 12.8781 21.9662C12.8779 21.966 12.8777 21.9659 12.8775 21.9658L12.1657 21.5199L12.1658 21.5198L12.1542 21.5128C12.1542 21.5128 12.1541 21.5128 12.1538 21.5126C12.1529 21.512 12.15 21.5102 12.1444 21.5068L12.1146 21.4881C12.0893 21.4722 12.0541 21.4499 12.0096 21.4213C11.9207 21.3642 11.7955 21.2829 11.6392 21.1789C11.3265 20.971 10.8901 20.6733 10.3707 20.2998C9.33069 19.552 7.96405 18.5046 6.59378 17.2686L6.59369 17.2685C4.93947 15.7769 3.62541 14.3214 2.68008 12.9449C2.08381 12.0756 1.62531 11.2263 1.30932 10.4207C0.932624 9.45861 0.75 8.53123 0.75 7.65757C0.75 6.72473 0.941716 5.81941 1.31833 4.96461L23.3201 12.9446Z" stroke="#A2A3A4" stroke-width="1.5"/>
</svg>
